<svg width="46" height="46" viewBox="0 0 46 46" fill="none" xmlns="http://www.w3.org/2000/svg">
<path d="M23 14.0492C23.5083 14.0492 23.9959 13.8472 24.3553 13.4878C24.7147 13.1283 24.9167 12.6408 24.9167 12.1325V11.0783L36.4167 8.20332V13.8383L28.175 15.9083C27.6667 15.9693 27.2034 16.2298 26.8871 16.6323C26.5708 17.0349 26.4273 17.5467 26.4883 18.055C26.5493 18.5633 26.8098 19.0266 27.2124 19.3429C27.6149 19.6592 28.1267 19.8027 28.635 19.7417H29.095L38.7933 17.25H38.9275L39.2917 17.0775L39.5792 16.8858C39.6722 16.7992 39.7558 16.7028 39.8283 16.5983C39.9031 16.5102 39.9674 16.4137 40.02 16.3108C40.078 16.2034 40.117 16.0866 40.135 15.9658C40.1528 15.8451 40.1528 15.7224 40.135 15.6017C40.2015 15.5271 40.2418 15.4329 40.25 15.3333V5.74999C40.2587 5.45445 40.1989 5.16091 40.0752 4.89233C39.9516 4.62375 39.7675 4.38741 39.5374 4.20181C39.3072 4.0162 39.0372 3.88636 38.7486 3.82243C38.4599 3.75851 38.1603 3.76223 37.8733 3.83332L22.54 7.66666C22.1147 7.77159 21.7383 8.01903 21.4732 8.36776C21.2082 8.7165 21.0706 9.14549 21.0833 9.58332V12.1325C21.0833 12.6408 21.2853 13.1283 21.6447 13.4878C22.0042 13.8472 22.4917 14.0492 23 14.0492ZM41.6108 38.9658L24.3608 21.7158L7.11084 4.46582C6.74575 4.18335 6.29098 4.04213 5.83011 4.0681C5.36923 4.09408 4.93322 4.28551 4.60218 4.60722C4.27115 4.92893 4.06734 5.35931 4.0282 5.81925C3.98907 6.2792 4.11725 6.73781 4.38918 7.11082L21.0833 23.7858V29.4208C20.1878 28.9834 19.205 28.7541 18.2083 28.75C16.8816 28.75 15.5846 29.1434 14.4814 29.8805C13.3782 30.6177 12.5184 31.6654 12.0107 32.8912C11.5029 34.1169 11.3701 35.4658 11.6289 36.7671C11.8877 38.0683 12.5267 39.2637 13.4648 40.2018C14.403 41.14 15.5983 41.7789 16.8996 42.0378C18.2009 42.2966 19.5497 42.1637 20.7755 41.656C22.0013 41.1483 23.049 40.2885 23.7861 39.1853C24.5232 38.0821 24.9167 36.7851 24.9167 35.4583V27.6192L38.8892 41.6108C39.0674 41.7905 39.2793 41.9331 39.5129 42.0304C39.7465 42.1277 39.997 42.1778 40.25 42.1778C40.503 42.1778 40.7535 42.1277 40.9871 42.0304C41.2207 41.9331 41.4327 41.7905 41.6108 41.6108C41.7905 41.4326 41.9331 41.2207 42.0304 40.9871C42.1277 40.7535 42.1778 40.503 42.1778 40.25C42.1778 39.997 42.1277 39.7464 42.0304 39.5129C41.9331 39.2793 41.7905 39.0673 41.6108 38.8892V38.9658ZM18.2083 38.3333C17.6397 38.3333 17.0839 38.1647 16.6111 37.8488C16.1383 37.5329 15.7698 37.0839 15.5522 36.5585C15.3346 36.0332 15.2777 35.4551 15.3886 34.8974C15.4995 34.3397 15.7733 33.8275 16.1754 33.4254C16.5775 33.0233 17.0898 32.7495 17.6475 32.6386C18.2052 32.5276 18.7832 32.5846 19.3086 32.8022C19.8339 33.0198 20.2829 33.3883 20.5988 33.8611C20.9147 34.3339 21.0833 34.8897 21.0833 35.4583C21.0833 36.2208 20.7804 36.9521 20.2413 37.4913C19.7021 38.0304 18.9708 38.3333 18.2083 38.3333Z" fill="white"/>
</svg>
