<svg width="46" height="46" viewBox="0 0 46 46" fill="none" xmlns="http://www.w3.org/2000/svg">
<path d="M36.4167 5.75C34.8917 5.75 33.4291 6.3558 32.3508 7.43414C31.2725 8.51247 30.6667 9.97501 30.6667 11.5V16.9433L13.4167 6.65083C12.4634 6.08192 11.3739 5.78155 10.2637 5.78155C9.1536 5.78155 8.06413 6.08192 7.11083 6.65083C6.11241 7.21822 5.28275 8.04081 4.70684 9.03434C4.13093 10.0279 3.82947 11.1566 3.83333 12.305V33.695C3.81419 34.8615 4.11038 36.0114 4.69064 37.0235C5.2709 38.0356 6.11368 38.8722 7.13 39.445C8.071 39.9774 9.13468 40.2549 10.2158 40.25C11.3443 40.2424 12.4499 39.9313 13.4167 39.3492L30.6667 29.0567V34.5C30.6667 36.025 31.2725 37.4875 32.3508 38.5659C33.4291 39.6442 34.8917 40.25 36.4167 40.25C37.9417 40.25 39.4042 39.6442 40.4825 38.5659C41.5609 37.4875 42.1667 36.025 42.1667 34.5V11.5C42.1667 9.97501 41.5609 8.51247 40.4825 7.43414C39.4042 6.3558 37.9417 5.75 36.4167 5.75ZM29.3633 25.3575L11.5 36.0525C11.1305 36.2777 10.7061 36.3968 10.2733 36.3968C9.84059 36.3968 9.41621 36.2777 9.04666 36.0525C8.62663 35.8191 8.27697 35.4772 8.03421 35.0625C7.79146 34.6478 7.66453 34.1755 7.66666 33.695V12.305C7.6557 11.8199 7.77646 11.341 8.01609 10.9191C8.25572 10.4972 8.60526 10.1482 9.0275 9.90917C9.38976 9.70201 9.79857 9.58992 10.2158 9.58333C10.67 9.57848 11.116 9.70493 11.5 9.9475L29.3825 20.6425C29.7826 20.8922 30.1125 21.2397 30.3412 21.6521C30.5699 22.0645 30.6899 22.5284 30.6899 23C30.6899 23.4716 30.5699 23.9355 30.3412 24.3479C30.1125 24.7603 29.7826 25.1078 29.3825 25.3575H29.3633ZM38.3333 34.5C38.3333 35.0083 38.1314 35.4958 37.772 35.8553C37.4125 36.2147 36.925 36.4167 36.4167 36.4167C35.9083 36.4167 35.4208 36.2147 35.0614 35.8553C34.7019 35.4958 34.5 35.0083 34.5 34.5V11.5C34.5 10.9917 34.7019 10.5042 35.0614 10.1447C35.4208 9.78527 35.9083 9.58333 36.4167 9.58333C36.925 9.58333 37.4125 9.78527 37.772 10.1447C38.1314 10.5042 38.3333 10.9917 38.3333 11.5V34.5Z" fill="white"/>
</svg>
