<svg width="46" height="46" viewBox="0 0 46 46" fill="none" xmlns="http://www.w3.org/2000/svg">
<path d="M30.6667 3.83337C29.1417 3.83337 27.6791 4.43918 26.6008 5.51751C25.5225 6.59584 24.9167 8.05838 24.9167 9.58337V36.4167C24.9167 37.9417 25.5225 39.4042 26.6008 40.4826C27.6791 41.5609 29.1417 42.1667 30.6667 42.1667C32.1917 42.1667 33.6542 41.5609 34.7325 40.4826C35.8109 39.4042 36.4167 37.9417 36.4167 36.4167V9.58337C36.4167 8.05838 35.8109 6.59584 34.7325 5.51751C33.6542 4.43918 32.1917 3.83337 30.6667 3.83337ZM32.5833 36.4167C32.5833 36.925 32.3814 37.4126 32.022 37.772C31.6625 38.1314 31.175 38.3334 30.6667 38.3334C30.1583 38.3334 29.6708 38.1314 29.3114 37.772C28.9519 37.4126 28.75 36.925 28.75 36.4167V9.58337C28.75 9.07504 28.9519 8.58753 29.3114 8.22809C29.6708 7.86864 30.1583 7.66671 30.6667 7.66671C31.175 7.66671 31.6625 7.86864 32.022 8.22809C32.3814 8.58753 32.5833 9.07504 32.5833 9.58337V36.4167ZM15.3333 3.83337C13.8083 3.83337 12.3458 4.43918 11.2675 5.51751C10.1891 6.59584 9.58334 8.05838 9.58334 9.58337V36.4167C9.58334 37.9417 10.1891 39.4042 11.2675 40.4826C12.3458 41.5609 13.8083 42.1667 15.3333 42.1667C16.8583 42.1667 18.3209 41.5609 19.3992 40.4826C20.4775 39.4042 21.0833 37.9417 21.0833 36.4167V9.58337C21.0833 8.05838 20.4775 6.59584 19.3992 5.51751C18.3209 4.43918 16.8583 3.83337 15.3333 3.83337ZM17.25 36.4167C17.25 36.925 17.0481 37.4126 16.6886 37.772C16.3292 38.1314 15.8417 38.3334 15.3333 38.3334C14.825 38.3334 14.3375 38.1314 13.9781 37.772C13.6186 37.4126 13.4167 36.925 13.4167 36.4167V9.58337C13.4167 9.07504 13.6186 8.58753 13.9781 8.22809C14.3375 7.86864 14.825 7.66671 15.3333 7.66671C15.8417 7.66671 16.3292 7.86864 16.6886 8.22809C17.0481 8.58753 17.25 9.07504 17.25 9.58337V36.4167Z" fill="white"/>
</svg>
