<svg width="46" height="46" viewBox="0 0 46 46" fill="none" xmlns="http://www.w3.org/2000/svg">
<path d="M35.535 17.2499L17.02 6.63161C16.0182 6.05309 14.881 5.75002 13.7241 5.7532C12.5672 5.75638 11.4318 6.06568 10.4331 6.64971C9.43441 7.23373 8.60809 8.07166 8.03806 9.07839C7.46802 10.0851 7.17458 11.2248 7.18755 12.3816V33.6949C7.18755 35.4334 7.87816 37.1007 9.10746 38.33C10.3368 39.5593 12.0041 40.2499 13.7425 40.2499C14.8934 40.248 16.0235 39.944 17.02 39.3683L35.535 28.7499C36.5299 28.1742 37.3559 27.3469 37.9301 26.3511C38.5043 25.3553 38.8066 24.2261 38.8066 23.0766C38.8066 21.9271 38.5043 20.7979 37.9301 19.8021C37.3559 18.8063 36.5299 17.9791 35.535 17.4033V17.2499ZM33.6184 25.2808L15.1034 36.0524C14.6884 36.2876 14.2195 36.4113 13.7425 36.4113C13.2656 36.4113 12.7967 36.2876 12.3817 36.0524C11.9679 35.8135 11.6243 35.4699 11.3854 35.056C11.1465 34.6422 11.0208 34.1728 11.0209 33.6949V12.3049C11.0208 11.8271 11.1465 11.3577 11.3854 10.9438C11.6243 10.53 11.9679 10.1864 12.3817 9.94745C12.7984 9.71583 13.2659 9.59074 13.7425 9.58328C14.2189 9.59306 14.6858 9.71801 15.1034 9.94745L33.6184 20.6424C34.0323 20.8813 34.3761 21.2249 34.6152 21.6387C34.8542 22.0525 34.98 22.522 34.98 22.9999C34.98 23.4779 34.8542 23.9473 34.6152 24.3612C34.3761 24.775 34.0323 25.1186 33.6184 25.3574V25.2808Z" fill="white"/>
</svg>
