<svg width="45" height="46" viewBox="0 0 45 46" fill="none" xmlns="http://www.w3.org/2000/svg">
<path d="M38.025 6.57421C37.0911 6.00925 36.0258 5.71118 34.9406 5.71118C33.8554 5.71118 32.7902 6.00925 31.8562 6.57421L15 16.9434V11.5C15 9.97505 14.4074 8.51251 13.3525 7.43418C12.2976 6.35584 10.8668 5.75004 9.375 5.75004C7.88316 5.75004 6.45242 6.35584 5.39752 7.43418C4.34263 8.51251 3.75 9.97505 3.75 11.5V34.5C3.75 36.025 4.34263 37.4876 5.39752 38.5659C6.45242 39.6442 7.88316 40.25 9.375 40.25C10.8668 40.25 12.2976 39.6442 13.3525 38.5659C14.4074 37.4876 15 36.025 15 34.5V29.0567L31.875 39.3492C32.8262 39.9346 33.9147 40.2459 35.025 40.25C36.0843 40.2491 37.125 39.9649 38.0438 39.4259C39.038 38.8531 39.8624 38.0165 40.4301 37.0044C40.9977 35.9923 41.2875 34.8423 41.2687 33.6759V12.305C41.2822 11.1399 40.988 9.9926 40.4172 8.98403C39.8463 7.97546 39.0199 7.14295 38.025 6.57421ZM11.25 34.5C11.25 35.0084 11.0525 35.4959 10.7008 35.8553C10.3492 36.2148 9.87228 36.4167 9.375 36.4167C8.87772 36.4167 8.40081 36.2148 8.04917 35.8553C7.69754 35.4959 7.5 35.0084 7.5 34.5V11.5C7.5 10.9917 7.69754 10.5042 8.04917 10.1448C8.40081 9.78531 8.87772 9.58337 9.375 9.58337C9.87228 9.58337 10.3492 9.78531 10.7008 10.1448C11.0525 10.5042 11.25 10.9917 11.25 11.5V34.5ZM37.5 33.695C37.5107 34.1801 37.3926 34.6591 37.1582 35.081C36.9237 35.5028 36.5818 35.8519 36.1688 36.0909C35.8072 36.316 35.3921 36.4351 34.9687 36.4351C34.5454 36.4351 34.1303 36.316 33.7687 36.0909L16.275 25.3575C15.8836 25.1078 15.5609 24.7604 15.3371 24.3479C15.1134 23.9355 14.996 23.4716 14.996 23C14.996 22.5284 15.1134 22.0646 15.3371 21.6522C15.5609 21.2397 15.8836 20.8923 16.275 20.6425L33.75 9.94754C34.1257 9.70497 34.5619 9.57852 35.0062 9.58337C35.4144 9.58996 35.8144 9.70205 36.1688 9.90921C36.5818 10.1482 36.9237 10.4972 37.1582 10.9191C37.3926 11.341 37.5107 11.82 37.5 12.305V33.695Z" fill="white"/>
</svg>
