<svg width="46" height="46" viewBox="0 0 46 46" fill="none" xmlns="http://www.w3.org/2000/svg">
<path d="M23 3.83337C18.0864 3.84739 13.3658 5.74796 9.81331 9.14254V5.75004C9.81331 5.24171 9.61138 4.7542 9.25194 4.39475C8.89249 4.03531 8.40498 3.83337 7.89665 3.83337C7.38831 3.83337 6.9008 4.03531 6.54136 4.39475C6.18191 4.7542 5.97998 5.24171 5.97998 5.75004V14.375C5.97998 14.8834 6.18191 15.3709 6.54136 15.7303C6.9008 16.0898 7.38831 16.2917 7.89665 16.2917H16.5216C17.03 16.2917 17.5175 16.0898 17.8769 15.7303C18.2364 15.3709 18.4383 14.8834 18.4383 14.375C18.4383 13.8667 18.2364 13.3792 17.8769 13.0198C17.5175 12.6603 17.03 12.4584 16.5216 12.4584H11.9216C14.3861 9.88306 17.6707 8.2468 21.2108 7.83091C24.751 7.41502 28.3254 8.24549 31.3196 10.1795C34.3137 12.1136 36.5405 15.0304 37.6171 18.4284C38.6937 21.8264 38.5528 25.4933 37.2186 28.7987C35.8844 32.1041 33.4404 34.8414 30.3066 36.54C27.1729 38.2385 23.5452 38.7923 20.0475 38.1059C16.5497 37.4196 13.4003 35.5361 11.1408 32.7793C8.88127 30.0224 7.65282 26.5645 7.66665 23C7.66665 22.4917 7.46471 22.0042 7.10527 21.6448C6.74582 21.2853 6.25831 21.0834 5.74998 21.0834C5.24165 21.0834 4.75414 21.2853 4.39469 21.6448C4.03525 22.0042 3.83331 22.4917 3.83331 23C3.83331 26.7909 4.95742 30.4965 7.06348 33.6485C9.16954 36.8004 12.163 39.2571 15.6652 40.7077C19.1675 42.1584 23.0212 42.538 26.7392 41.7984C30.4572 41.0589 33.8724 39.2334 36.5529 36.5529C39.2334 33.8724 41.0588 30.4572 41.7984 26.7393C42.5379 23.0213 42.1584 19.1675 40.7077 15.6653C39.257 12.163 36.8004 9.1696 33.6484 7.06354C30.4965 4.95748 26.7908 3.83337 23 3.83337ZM23 15.3334C22.4916 15.3334 22.0041 15.5353 21.6447 15.8948C21.2852 16.2542 21.0833 16.7417 21.0833 17.25V23C21.0833 23.5084 21.2852 23.9959 21.6447 24.3553C22.0041 24.7148 22.4916 24.9167 23 24.9167H26.8333C27.3416 24.9167 27.8292 24.7148 28.1886 24.3553C28.548 23.9959 28.75 23.5084 28.75 23C28.75 22.4917 28.548 22.0042 28.1886 21.6448C27.8292 21.2853 27.3416 21.0834 26.8333 21.0834H24.9166V17.25C24.9166 16.7417 24.7147 16.2542 24.3553 15.8948C23.9958 15.5353 23.5083 15.3334 23 15.3334Z" fill="white"/>
</svg>
