<svg width="45" height="46" viewBox="0 0 45 46" fill="none" xmlns="http://www.w3.org/2000/svg">
<path d="M35.85 4.23589C35.6295 4.04678 35.3693 3.9121 35.0897 3.84231C34.8101 3.77251 34.5185 3.76946 34.2375 3.83339L19.2375 7.66672C18.8215 7.77166 18.4532 8.0191 18.1939 8.36783C17.9346 8.71656 17.8 9.14556 17.8125 9.58339V29.4209C16.9364 28.9835 15.975 28.7541 15 28.7501C13.7021 28.7501 12.4333 29.1435 11.3541 29.8806C10.2749 30.6177 9.43374 31.6654 8.93704 32.8912C8.44034 34.117 8.31038 35.4658 8.5636 36.7671C8.81682 38.0684 9.44183 39.2637 10.3596 40.2019C11.2774 41.1401 12.4467 41.779 13.7197 42.0378C14.9927 42.2967 16.3122 42.1638 17.5114 41.6561C18.7105 41.1483 19.7354 40.2885 20.4565 39.1853C21.1776 38.0822 21.5625 36.7852 21.5625 35.4584V20.6617L35.1375 17.2501H35.2688L35.625 16.9626L35.9063 16.7709C35.9973 16.6842 36.079 16.5878 36.15 16.4834C36.2232 16.3953 36.2861 16.2988 36.3375 16.1959C36.3943 16.0884 36.4323 15.9717 36.45 15.8509C36.4696 15.7303 36.4696 15.6073 36.45 15.4867C36.4584 15.436 36.4584 15.3841 36.45 15.3334V5.75006C36.4653 5.46807 36.4194 5.18612 36.3157 4.92436C36.212 4.6626 36.053 4.4275 35.85 4.23589ZM15 38.3334C14.4437 38.3334 13.9 38.1648 13.4375 37.8489C12.9749 37.533 12.6145 37.0839 12.4016 36.5586C12.1887 36.0333 12.133 35.4552 12.2415 34.8975C12.3501 34.3398 12.6179 33.8275 13.0113 33.4255C13.4046 33.0234 13.9057 32.7496 14.4513 32.6386C14.9969 32.5277 15.5624 32.5846 16.0763 32.8022C16.5902 33.0198 17.0295 33.3883 17.3385 33.8611C17.6476 34.3339 17.8125 34.8898 17.8125 35.4584C17.8125 36.2209 17.5162 36.9522 16.9887 37.4913C16.4613 38.0305 15.7459 38.3334 15 38.3334ZM32.8125 13.8384L21.5625 16.7134V11.0784L32.8125 8.20339V13.8384Z" fill="white"/>
</svg>
